<?xml version="1.0" standalone="no"?>
<!DOCTYPE svg PUBLIC "-//W3C//DTD SVG 20010904//EN"
 "http://www.w3.org/TR/2001/REC-SVG-20010904/DTD/svg10.dtd">
<svg version="1.0" xmlns="http://www.w3.org/2000/svg"
 width="500.000000pt" height="500.000000pt" viewBox="0 0 500.000000 500.000000"
 preserveAspectRatio="xMidYMid meet">

<g transform="translate(0.000000,500.000000) scale(0.100000,-0.100000)"
fill="#FFFFFF" stroke="none">
<path d="M2527 4163 c-9 -95 -9 -143 2 -143 5 0 16 -3 25 -6 13 -5 16 1 16 25
0 28 3 31 30 31 41 0 76 18 89 47 17 37 14 52 -18 84 -25 25 -37 29 -84 29
l-54 0 -6 -67z m111 0 c14 -27 3 -43 -29 -43 -26 0 -29 4 -29 30 0 25 4 30 25
30 13 0 28 -8 33 -17z"/>
<path d="M2265 4195 c-14 -13 -25 -30 -25 -38 0 -30 39 -64 80 -71 26 -4 40
-11 40 -21 0 -17 -27 -19 -64 -5 -21 8 -27 6 -36 -9 -13 -25 7 -41 57 -48 29
-4 44 0 66 17 50 40 25 102 -48 116 -43 8 -52 20 -25 34 14 8 26 8 41 0 17 -9
23 -8 34 7 20 27 0 43 -52 43 -33 0 -50 -6 -68 -25z"/>
<path d="M2778 4098 l-25 -103 40 -12 c22 -7 56 -16 74 -19 30 -6 33 -4 33 18
0 21 -6 27 -42 34 -30 6 -44 15 -46 28 -4 17 1 18 46 13 47 -5 62 1 62 28 0 2
-18 6 -40 10 -43 7 -58 21 -42 37 7 7 25 7 55 0 46 -9 57 -4 57 28 0 9 -45 23
-111 35 l-37 7 -24 -104z"/>
<path d="M1819 4092 c-80 -35 -85 -38 -76 -59 9 -21 11 -21 39 -7 17 9 31 14
33 12 2 -2 17 -35 34 -73 29 -68 51 -89 73 -67 7 7 0 35 -21 86 -36 87 -36 86
-13 86 30 0 45 16 37 39 -3 11 -9 21 -13 21 -4 -1 -46 -17 -93 -38z"/>
<path d="M3046 4043 c-86 -85 -94 -100 -64 -112 16 -7 26 -5 34 5 17 21 88 -5
92 -34 3 -21 38 -49 49 -39 2 3 1 58 -4 123 -6 96 -11 119 -24 122 -9 1 -45
-27 -83 -65z m63 -60 c1 -16 -21 -17 -37 -1 -9 9 -8 16 5 31 17 18 18 18 24 0
4 -10 8 -24 8 -30z"/>
<path d="M2083 4069 c-18 -5 -33 -14 -33 -19 0 -18 22 -21 70 -10 35 8 47 16
43 26 -6 16 -32 17 -80 3z"/>
<path d="M3269 3929 c-50 -88 -51 -92 -33 -106 17 -12 21 -11 39 12 12 14 23
25 27 25 3 0 8 -21 11 -47 5 -44 25 -73 50 -73 6 0 7 28 3 68 l-7 69 62 22
c60 22 61 23 38 39 -19 13 -29 13 -66 4 -62 -17 -65 -16 -42 22 20 35 20 35 0
45 -11 6 -22 11 -25 11 -2 0 -28 -41 -57 -91z"/>
<path d="M1495 3916 c-17 -12 -15 -17 33 -91 28 -43 53 -83 55 -89 3 -10 137
53 137 65 0 3 -6 14 -14 24 -13 18 -14 18 -48 -3 -20 -12 -40 -22 -45 -22 -5
0 -27 29 -48 65 -21 36 -41 65 -44 65 -4 0 -15 -6 -26 -14z"/>
<path d="M3511 3768 c-68 -82 -69 -83 -50 -102 10 -11 20 -18 22 -15 2 2 28
33 58 69 85 101 83 98 69 115 -7 8 -16 15 -21 15 -4 0 -39 -37 -78 -82z"/>
<path d="M1327 3796 c-9 -7 -17 -16 -17 -19 0 -4 21 -34 46 -67 46 -60 50 -84
18 -97 -10 -4 -33 11 -69 47 -46 46 -55 51 -74 41 -11 -7 -21 -16 -21 -21 0
-14 99 -104 128 -117 54 -22 134 44 117 97 -4 13 -83 120 -108 147 -1 1 -10
-4 -20 -11z"/>
<path d="M2335 3800 c-362 -57 -671 -241 -895 -534 -112 -146 -194 -326 -236
-517 -24 -111 -29 -343 -10 -461 54 -331 238 -626 521 -839 135 -101 359 -197
560 -241 79 -17 371 -17 450 0 508 110 877 427 1030 886 136 404 50 868 -219
1199 -101 123 -102 125 -171 183 -182 155 -358 245 -600 305 -93 23 -334 34
-430 19z m125 -118 l0 -39 -66 -12 c-152 -28 -318 -96 -448 -184 -33 -23 -98
-78 -143 -124 -46 -45 -83 -80 -83 -78 0 3 16 35 37 72 25 48 67 98 140 170
86 85 118 110 186 142 117 56 230 86 340 90 37 1 37 1 37 -37z m290 15 l55
-13 -125 -12 c-161 -16 -150 -17 -150 19 l0 32 83 -7 c45 -4 107 -12 137 -19z
m-290 -237 l0 -100 35 0 35 0 0 101 0 101 66 -7 c93 -10 188 -38 307 -91 119
-53 205 -112 300 -203 69 -66 184 -207 176 -216 -3 -2 -27 3 -54 11 -68 21
-184 14 -251 -15 -58 -25 -101 -66 -137 -129 l-25 -44 -4 94 c-3 78 -9 104
-35 160 -18 38 -52 87 -78 113 -46 46 -140 97 -202 110 l-33 7 0 -281 0 -281
185 0 185 0 0 -40 0 -40 -360 0 -360 0 0 163 c1 175 8 211 54 272 52 68 56 56
56 -160 l0 -195 60 0 60 0 0 281 0 281 -32 -7 c-94 -21 -200 -90 -248 -162
-36 -55 -70 -159 -70 -213 l0 -38 -87 19 c-92 20 -281 83 -309 103 -31 23 133
216 277 324 108 81 351 175 467 181 21 1 22 -2 22 -99z m-680 13 c-69 -90 -85
-115 -120 -183 -20 -41 -43 -93 -50 -115 -7 -22 -15 -43 -17 -48 -5 -8 -93 63
-93 76 0 9 44 66 105 135 32 36 180 159 193 161 2 1 -6 -11 -18 -26z m930
-303 c11 -6 32 -32 47 -57 24 -41 28 -61 31 -145 l4 -98 -56 0 -56 0 0 155 c0
85 3 155 6 155 3 0 14 -5 24 -10z m-1229 -56 c13 -14 39 -35 57 -46 28 -17 33
-25 28 -47 -3 -14 -12 -53 -19 -86 l-13 -60 -27 45 -27 45 0 -232 0 -233 -111
0 -111 0 7 68 c13 129 26 196 61 306 33 102 109 266 124 266 4 0 17 -12 31
-26z m251 -153 c99 -46 186 -74 286 -91 l72 -13 0 -66 c1 -64 -2 -71 -107
-278 -59 -117 -110 -213 -113 -213 -3 0 -24 35 -48 78 -24 42 -87 153 -139
246 l-96 170 17 79 c18 80 32 127 39 127 2 0 42 -18 89 -39z m1753 -110 c45
-89 66 -186 71 -321 l5 -125 -33 59 c-37 66 -101 121 -162 137 -225 60 -286
96 -286 168 0 111 160 158 258 76 17 -14 35 -25 40 -25 6 0 26 18 43 40 18 22
34 40 36 40 1 0 14 -22 28 -49z m-517 -280 c59 -49 83 -61 207 -101 139 -45
181 -71 196 -119 10 -33 9 -44 -7 -77 -46 -92 -184 -100 -293 -17 l-34 26 -31
-38 c-17 -22 -44 -53 -59 -70 l-28 -30 33 -29 c18 -15 62 -42 98 -60 60 -29
72 -31 170 -31 114 1 169 18 233 71 16 13 31 23 34 20 9 -9 -67 -145 -125
-221 -71 -96 -204 -226 -287 -282 -122 -82 -320 -156 -452 -169 l-63 -7 0 125
0 125 54 12 c81 18 174 79 218 142 70 100 78 146 78 440 l0 259 -60 0 -60 0 0
-101 0 -102 -41 47 c-46 52 -81 73 -180 105 -36 12 -75 28 -85 36 -13 10 -48
14 -117 15 l-97 0 15 -37 c32 -75 92 -118 229 -163 39 -13 80 -34 93 -48 71
-77 13 -178 -102 -175 -56 1 -94 17 -143 58 l-30 25 -43 -45 c-73 -77 -73 -81
8 -136 86 -60 221 -78 323 -44 51 17 116 71 152 125 17 25 17 25 17 -30 2
-145 -131 -270 -285 -270 -116 0 -225 66 -270 165 -23 49 -24 56 -24 348 l0
297 356 0 355 0 47 -39z m-1488 -336 l0 -185 -37 -19 c-82 -41 -77 -44 -116
76 -35 106 -50 171 -61 266 l-6 47 110 0 110 0 0 -185z m196 54 c46 -82 55
-103 43 -110 -25 -17 -88 -49 -96 -49 -4 0 -9 59 -11 130 -1 72 0 130 2 130 3
0 31 -45 62 -101z m437 -354 c54 -121 138 -196 262 -231 l65 -19 0 -124 0
-124 -57 7 c-91 11 -170 34 -278 83 -187 85 -359 244 -441 406 -24 49 -44 94
-44 101 0 10 135 86 153 86 4 0 7 -5 7 -12 0 -19 81 -148 90 -143 8 5 45 68
110 190 46 85 82 148 94 164 8 10 12 -34 16 -165 4 -141 9 -187 23 -219z
m-563 17 c0 -101 81 -274 180 -385 25 -28 36 -45 25 -39 -47 26 -144 113 -207
187 -64 75 -155 211 -147 219 8 8 125 55 137 56 7 0 12 -14 12 -38z m330 -386
l35 -26 -40 16 c-53 22 -83 47 -123 102 -61 85 -55 88 20 11 40 -42 89 -88
108 -103z m310 -222 c115 -35 95 -44 -27 -13 -88 21 -176 60 -223 98 -17 14 4
8 65 -18 50 -21 133 -51 185 -67z"/>
<path d="M3640 3655 l-74 -75 21 -21 20 -21 28 36 c15 20 31 36 35 36 5 0 6
-36 3 -80 -8 -113 6 -116 104 -18 69 69 74 77 63 98 -12 22 -12 22 -56 -21
-24 -23 -45 -41 -48 -38 -2 2 1 37 6 78 8 69 2 101 -21 101 -4 0 -40 -34 -81
-75z"/>
<path d="M1104 3556 c-13 -21 -13 -28 6 -70 11 -26 20 -50 20 -52 0 -2 -25 -1
-55 2 -56 7 -85 -4 -85 -32 0 -7 39 -41 86 -74 80 -57 87 -60 100 -43 14 19
11 24 -54 72 l-27 20 68 -6 c37 -3 67 -2 67 3 0 5 -9 24 -21 43 -11 18 -18 35
-16 37 2 2 21 -5 43 -15 36 -18 40 -19 52 -4 14 19 16 33 4 33 -4 0 -44 24
-90 54 l-83 54 -15 -22z"/>
<path d="M3842 3425 c-88 -74 -14 -220 94 -185 19 7 34 18 34 27 0 23 -40 83
-55 83 -20 0 -29 -20 -16 -33 14 -14 14 -37 1 -37 -19 0 -50 40 -50 63 0 57
83 78 117 31 23 -31 65 -27 56 5 -9 36 -50 64 -101 69 -41 3 -52 0 -80 -23z"/>
<path d="M865 2525 c-45 -45 -22 -115 38 -115 38 0 50 7 66 37 15 29 5 69 -22
88 -31 21 -54 19 -82 -10z"/>
<path d="M4045 2525 c-48 -47 -19 -115 49 -115 39 0 66 28 66 68 0 29 -42 72
-70 72 -11 0 -32 -11 -45 -25z"/>
<path d="M1502 1264 c-30 -21 -29 -64 3 -94 14 -13 25 -27 25 -32 0 -16 -37
-8 -55 12 -34 37 -69 17 -42 -24 33 -50 118 -59 133 -13 10 29 6 46 -17 75
-10 14 -19 29 -19 33 0 16 27 9 45 -11 13 -15 22 -17 36 -9 25 13 11 43 -31
64 -37 19 -50 19 -78 -1z"/>
<path d="M3334 1210 c-56 -22 -79 -93 -49 -150 31 -59 104 -69 157 -21 28 25
33 36 33 76 0 40 -5 51 -33 76 -33 30 -67 36 -108 19z m84 -63 c29 -23 0 -87
-41 -87 -11 0 -29 7 -39 17 -53 48 22 115 80 70z"/>
<path d="M1755 1127 c-14 -20 -13 -22 13 -36 15 -7 28 -15 30 -16 1 -1 -12
-33 -29 -70 -30 -66 -30 -69 -13 -82 17 -12 21 -8 52 54 19 38 36 69 37 71 2
2 13 -2 26 -8 19 -11 25 -10 36 6 7 10 13 20 13 23 0 3 -34 23 -75 43 l-74 37
-16 -22z"/>
<path d="M2998 1035 c-35 -20 -48 -44 -48 -93 0 -92 106 -137 171 -73 81 82
-23 222 -123 166z m82 -55 c24 -24 26 -53 4 -74 -20 -21 -43 -20 -66 1 -22 20
-23 51 -1 75 21 23 38 23 63 -2z"/>
<path d="M2035 1018 c-15 -49 -35 -129 -35 -143 0 -28 55 -75 89 -75 50 0 79
35 95 115 10 52 11 72 2 77 -22 15 -34 8 -40 -24 -21 -103 -41 -133 -72 -107
-18 15 -18 52 0 111 13 41 13 47 -1 52 -23 9 -33 7 -38 -6z"/>
<path d="M2266 953 c-10 -36 -26 -175 -20 -184 3 -5 31 -9 63 -9 71 0 107 24
117 76 13 71 -24 111 -118 128 -30 5 -37 3 -42 -11z m102 -55 c21 -21 14 -66
-12 -83 -33 -22 -56 -10 -56 30 0 18 3 40 6 49 7 19 45 21 62 4z"/>
<path d="M2590 923 c0 -21 3 -68 7 -105 6 -64 7 -68 31 -68 44 0 103 23 123
48 21 27 25 82 9 113 -16 29 -64 49 -120 49 l-50 0 0 -37z m114 -29 c24 -23
20 -61 -9 -80 -39 -26 -55 -12 -55 46 0 46 2 50 24 50 14 0 32 -7 40 -16z"/>
</g>
</svg>
