<svg width="24" height="24" viewBox="0 0 24 24" fill="none" xmlns="http://www.w3.org/2000/svg">
<mask id="mask0_72_520" style="mask-type:alpha" maskUnits="userSpaceOnUse" x="2" y="0" width="20" height="20">
<path d="M7.51667 8.99167C8.71667 11.35 10.65 13.275 13.0083 14.4833L14.8417 12.65C15.0667 12.425 15.4 12.35 15.6917 12.45C16.625 12.7583 17.6333 12.925 18.6667 12.925C19.125 12.925 19.5 13.3 19.5 13.7583V16.6667C19.5 17.125 19.125 17.5 18.6667 17.5C10.8417 17.5 4.5 11.1583 4.5 3.33333C4.5 2.875 4.875 2.5 5.33333 2.5H8.25C8.70833 2.5 9.08333 2.875 9.08333 3.33333C9.08333 4.375 9.25 5.375 9.55833 6.30833C9.65 6.6 9.58333 6.925 9.35 7.15833L7.51667 8.99167Z" fill="black"/>
</mask>
<g mask="url(#mask0_72_520)">
<rect x="-3.41663" y="-2.5" width="37.0833" height="25.625" fill="#D9D9D9"/>
</g>
</svg>
